<svg aria-hidden="true" style="position: absolute; width: 0; height: 0; overflow: hidden;" version="1.1" xmlns="http://www.w3.org/2000/svg" xmlns:xlink="http://www.w3.org/1999/xlink">
<defs>
<symbol id="icon-close" viewBox="0 0 32 32">
<path d="M23.733 10.304l-1.504-1.504-5.963 5.963-5.963-5.963-1.504 1.504 5.963 5.963-5.963 5.963 1.504 1.504 5.963-5.963 5.963 5.963 1.504-1.504-5.963-5.963 5.963-5.963z"></path>
<symbol id="icon-heart" viewBox="0 0 34 32">
<path d="M17.231 31.705l-2.412-2.412c-8.96-7.926-14.818-13.268-14.818-19.815 0-5.342 4.135-9.477 9.477-9.477 2.929 0 5.858 1.378 7.754 3.618 1.895-2.24 4.825-3.618 7.754-3.618 5.342 0 9.477 4.135 9.477 9.477 0 6.548-5.858 11.889-14.818 19.815l-2.412 2.412z"></path>
</symbol>
<symbol id="icon-logo" viewBox="0 0 32 32">
<path fill="none" stroke="#818181" stroke-width="2.6667" stroke-miterlimit="4" stroke-linecap="round" stroke-linejoin="round" style="stroke: var(--color1, #818181)" d="M26.667 2.667h-21.333l-2.667 2.667v21.333l2.667 2.667h21.333l2.667-2.667v-21.333l-2.667-2.667zM9.333 2.667v26.667M22.667 2.667v26.667M2.667 16h26.667M2.667 9.333h6.667M2.667 22.667h6.667M22.667 22.667h6.667M22.667 9.333h6.667"></path>
</symbol>
<symbol id="icon-search" viewBox="0 0 32 32">
<path fill="none" stroke="#fff" stroke-width="2.6667" stroke-miterlimit="4" stroke-linecap="round" stroke-linejoin="round" style="stroke: var(--color2, #fff)" d="M16 26.667c5.891 0 10.667-4.776 10.667-10.667s-4.776-10.667-10.667-10.667v0c-5.891 0-10.667 4.776-10.667 10.667s4.776 10.667 10.667 10.667v0zM29.333 29.333l-8-8"></path>
</symbol>
<symbol id="icon-scroll" viewBox="0 0 32 32">
<path d="M31.674 21.902l-14.939-14.939c-0.225-0.225-0.449-0.337-0.786-0.337s-0.449 0.112-0.674 0.337l-14.939 14.939c-0.207 0.186-0.337 0.455-0.337 0.754 0 0.011 0 0.023 0.001 0.034l-0-0.002c0 0.225 0.112 0.562 0.337 0.674l1.572 1.685c0.186 0.207 0.455 0.337 0.754 0.337 0.011 0 0.023-0 0.034-0.001l-0.002 0 0.674-0.337 12.58-12.692 12.692 12.692c0.168 0.189 0.405 0.314 0.67 0.337l0.004 0c0.337 0 0.562-0.112 0.786-0.337l1.572-1.685c0.189-0.168 0.314-0.405 0.337-0.67l0-0.004c0-0.337-0.112-0.562-0.337-0.786z"></path>
</symbol>
<symbol fill="#ffffff" id="icon-light_mode_black_24dp" viewBox="0 0 32 32">
<path d="M16 12c2.2 0 4 1.8 4 4s-1.8 4-4 4-4-1.8-4-4 1.8-4 4-4zM16 9.333c-3.68 0-6.667 2.987-6.667 6.667s2.987 6.667 6.667 6.667 6.667-2.987 6.667-6.667-2.987-6.667-6.667-6.667v0zM2.667 17.333h2.667c0.733 0 1.333-0.6 1.333-1.333s-0.6-1.333-1.333-1.333h-2.667c-0.733 0-1.333 0.6-1.333 1.333s0.6 1.333 1.333 1.333zM26.667 17.333h2.667c0.733 0 1.333-0.6 1.333-1.333s-0.6-1.333-1.333-1.333h-2.667c-0.733 0-1.333 0.6-1.333 1.333s0.6 1.333 1.333 1.333zM14.667 2.667v2.667c0 0.733 0.6 1.333 1.333 1.333s1.333-0.6 1.333-1.333v-2.667c0-0.733-0.6-1.333-1.333-1.333s-1.333 0.6-1.333 1.333zM14.667 26.667v2.667c0 0.733 0.6 1.333 1.333 1.333s1.333-0.6 1.333-1.333v-2.667c0-0.733-0.6-1.333-1.333-1.333s-1.333 0.6-1.333 1.333zM7.987 6.107c-0.52-0.52-1.373-0.52-1.88 0-0.52 0.52-0.52 1.373 0 1.88l1.413 1.413c0.52 0.52 1.373 0.52 1.88 0s0.52-1.373 0-1.88l-1.413-1.413zM24.48 22.6c-0.52-0.52-1.373-0.52-1.88 0-0.52 0.52-0.52 1.373 0 1.88l1.413 1.413c0.52 0.52 1.373 0.52 1.88 0 0.52-0.52 0.52-1.373 0-1.88l-1.413-1.413zM25.893 7.987c0.52-0.52 0.52-1.373 0-1.88-0.52-0.52-1.373-0.52-1.88 0l-1.413 1.413c-0.52 0.52-0.52 1.373 0 1.88s1.373 0.52 1.88 0l1.413-1.413zM9.4 24.48c0.52-0.52 0.52-1.373 0-1.88-0.52-0.52-1.373-0.52-1.88 0l-1.413 1.413c-0.52 0.52-0.52 1.373 0 1.88s1.373 0.52 1.88 0l1.413-1.413z"></path>
</symbol>
<symbol fill="#ffffff" id="icon-nightlight_round_black_24dp" viewBox="0 0 32 32">
<path d="M20.667 29.333c1.4 0 2.733-0.213 4-0.613-5.413-1.693-9.333-6.747-9.333-12.72s3.92-11.027 9.333-12.72c-1.267-0.4-2.6-0.613-4-0.613-7.36 0-13.333 5.973-13.333 13.333s5.973 13.333 13.333 13.333v0z"></path>
</symbol>
</defs>
</svg>



